<svg width="133" height="45" viewBox="0 0 133 45" fill="none" xmlns="http://www.w3.org/2000/svg">
<rect y="37" width="5" height="8" rx="2.5" fill="#A3CCDC"/>
<rect x="8" y="29" width="5" height="16" rx="2.5" fill="#A3CCDC"/>
<rect x="16" y="30" width="5" height="15" rx="2.5" fill="#A3CCDC"/>
<rect x="24" y="26" width="5" height="19" rx="2.5" fill="#A3CCDC"/>
<rect x="32" y="18" width="5" height="27" rx="2.5" fill="#A3CCDC"/>
<rect x="40" y="17" width="5" height="28" rx="2.5" fill="#A3CCDC"/>
<rect x="48" y="29" width="5" height="16" rx="2.5" fill="#A3CCDC"/>
<rect x="56" y="31" width="5" height="14" rx="2.5" fill="#A3CCDC"/>
<rect x="64" y="29" width="5" height="16" rx="2.5" fill="#A3CCDC"/>
<rect x="72" y="29" width="5" height="16" rx="2.5" fill="#A3CCDC"/>
<rect x="80" y="28" width="5" height="17" rx="2.5" fill="#A3CCDC"/>
<rect x="88" y="30" width="5" height="15" rx="2.5" fill="#A3CCDC"/>
<rect x="96" y="29" width="5" height="16" rx="2.5" fill="#A3CCDC"/>
<rect x="104" y="23" width="5" height="22" rx="2.5" fill="#A3CCDC"/>
<rect x="112" y="14" width="5" height="31" rx="2.5" fill="#A3CCDC"/>
<rect x="120" y="4" width="5" height="41" rx="2.5" fill="#A3CCDC"/>
<rect x="128" width="5" height="45" rx="2.5" fill="#A3CCDC"/>
</svg>
